<svg width="87" height="35" viewBox="0 0 87 35" fill="none" xmlns="http://www.w3.org/2000/svg">
<path d="M22.2487 28.1382C23.2624 27.854 24.2332 27.3352 24.8702 26.4186C25.499 25.5211 25.6761 24.3825 25.6761 23.2869V7.23522C25.6761 6.95101 25.6607 6.66627 25.6264 6.38495C26.1299 6.58298 26.5179 6.91021 26.7905 7.36663C27.1121 7.88561 27.2729 8.56905 27.2729 9.41695V25.7208C27.2729 26.8684 26.9915 27.7273 26.4287 28.2974C25.8659 28.8675 25.018 29.1526 23.885 29.1526H17.7265C17.8724 29.1271 18.0186 29.1008 18.1651 29.0738C19.4503 28.8441 20.8085 28.5324 22.2383 28.1411L22.2487 28.1382Z" fill="#4747A3"/>
<path fill-rule="evenodd" clip-rule="evenodd" d="M7.44971 25.381V9.05524C7.44971 8.06115 7.7165 7.30827 8.2501 6.79661C8.791 6.28494 9.50733 6.00353 10.3991 5.95236C11.7148 5.87195 12.9611 5.76231 14.1379 5.62343C15.3147 5.47724 16.4404 5.30912 17.5149 5.11908C18.5967 4.92903 19.6493 4.71705 20.6726 4.48315C21.7252 4.23463 22.5329 4.35889 23.0957 4.85593C23.6585 5.35298 23.9399 6.14606 23.9399 7.23518V23.2868C23.9399 24.2444 23.7755 24.9571 23.4466 25.4249C23.1176 25.9 22.5621 26.2472 21.78 26.4665C20.3912 26.8466 19.0828 27.1463 17.8548 27.3655C16.6268 27.5921 15.428 27.7639 14.2585 27.8809C13.089 27.9978 11.8902 28.0892 10.6622 28.155C9.64621 28.2135 8.85679 28.0015 8.29395 27.519C7.73112 27.0439 7.44971 26.3313 7.44971 25.381ZM11.4659 12.0194C13.076 11.9169 14.5514 11.7595 15.892 11.5471C16.2172 11.4941 16.542 11.4388 16.8656 11.3815C17.2042 11.3216 17.449 11.0265 17.449 10.6834C17.449 10.2391 17.0469 9.90454 16.6103 9.97902C16.3594 10.0218 16.1073 10.0634 15.8538 10.1038C14.5266 10.3153 13.0601 10.4721 11.4542 10.5743C11.2137 10.5899 11.0224 10.6648 10.8994 10.8141C10.7831 10.9553 10.7261 11.1252 10.7261 11.3188C10.7261 11.5157 10.7925 11.687 10.9251 11.8279L10.927 11.8297C11.0707 11.9734 11.2532 12.0356 11.4659 12.0194ZM11.4653 15.6597C13.0756 15.5572 14.5512 15.3998 15.892 15.1873C17.2385 14.9678 18.5709 14.7116 19.8882 14.4188C20.1555 14.3594 20.3558 14.2659 20.4559 14.1206C20.5544 13.9809 20.6031 13.8208 20.6031 13.6433C20.6031 13.4432 20.5268 13.2708 20.3785 13.1307C20.2188 12.9799 19.9955 12.9447 19.7313 12.9991L19.7296 12.9995C18.4743 13.2841 17.1823 13.5323 15.8538 13.744C14.5266 13.9555 13.0601 14.1124 11.4542 14.2146C11.2137 14.2301 11.0224 14.305 10.8994 14.4543C10.7837 14.5949 10.7261 14.7608 10.7261 14.9481C10.7261 15.1512 10.7918 15.3266 10.925 15.4682L10.9288 15.4718C11.0721 15.6066 11.2528 15.6679 11.4631 15.6598L11.4653 15.6597ZM11.4657 19.2998C13.0759 19.19 14.5513 19.0289 15.8919 18.8165C17.2386 18.6043 18.5707 18.3517 19.8882 18.059C20.1562 17.9994 20.3566 17.902 20.4566 17.7488C20.5541 17.6101 20.6031 17.4542 20.6031 17.2835C20.6031 17.0833 20.5268 16.9109 20.3785 16.7708C20.2188 16.62 19.9955 16.5849 19.7313 16.6393L19.7301 16.6395C18.4746 16.9169 17.1825 17.1615 15.8538 17.3732C14.5265 17.5847 13.0599 17.7452 11.454 17.8547C11.2136 17.8703 11.0223 17.9452 10.8994 18.0945C10.7837 18.235 10.7261 18.4009 10.7261 18.5882C10.7261 18.7914 10.7918 18.9668 10.925 19.1083L10.9288 19.1119C11.0721 19.2467 11.2528 19.3081 11.4631 19.3L11.4657 19.2998ZM15.892 22.4314C14.5514 22.6438 13.076 22.8012 11.4659 22.9037C11.2532 22.9199 11.0707 22.8577 10.927 22.714L10.9251 22.7122C10.7926 22.5713 10.7261 22.4 10.7261 22.2031C10.7261 22.0095 10.7831 21.8396 10.8994 21.6984C11.0224 21.5491 11.2138 21.4742 11.4543 21.4586C13.0602 21.3565 14.5266 21.1996 15.8538 20.9881C16.1073 20.9477 16.3594 20.9061 16.6103 20.8633C17.0469 20.7888 17.449 21.1234 17.449 21.5677C17.449 21.9108 17.2042 22.2059 16.8656 22.2658C16.542 22.3231 16.2172 22.3784 15.892 22.4314Z" fill="#4747A3"/>
<path d="M35.7639 23.901C35.668 23.901 35.5903 23.8233 35.5903 23.7274V10.2292C35.5903 10.1333 35.668 10.0555 35.7639 10.0555H40.99C42.0845 10.0555 43.08 10.2401 43.9767 10.6094C44.8733 10.9786 45.6447 11.4862 46.2909 12.1324C46.9502 12.7653 47.4512 13.4971 47.7941 14.3279C48.1501 15.1586 48.3281 16.0421 48.3281 16.9783C48.3281 17.9145 48.1501 18.798 47.7941 19.6287C47.4512 20.4594 46.9502 21.1979 46.2909 21.844C45.6447 22.4769 44.8733 22.978 43.9767 23.3472C43.08 23.7164 42.0845 23.901 40.99 23.901H35.7639ZM41.0098 12.251H38.1967C38.1008 12.251 38.0231 12.3288 38.0231 12.4247V21.5319C38.0231 21.6278 38.1008 21.7055 38.1967 21.7055H41.0098C41.7087 21.7055 42.3482 21.5869 42.9284 21.3495C43.5218 21.099 44.0294 20.7561 44.4514 20.321C44.8865 19.8858 45.2228 19.3848 45.4601 18.8178C45.6975 18.2508 45.8162 17.6376 45.8162 16.9783C45.8162 16.319 45.6975 15.7058 45.4601 15.1388C45.2228 14.5586 44.8865 14.0575 44.4514 13.6356C44.0294 13.2004 43.5218 12.8642 42.9284 12.6268C42.3482 12.3763 41.7087 12.251 41.0098 12.251Z" fill="#4747A3"/>
<path d="M55.0294 21.8638C55.4778 21.8638 55.8931 21.7781 56.2755 21.6067C56.6579 21.4221 56.9876 21.1781 57.2645 20.8749C57.5546 20.5716 57.7787 20.2221 57.937 19.8266C58.0952 19.4178 58.1743 18.9826 58.1743 18.5211C58.1743 17.8882 58.0359 17.3212 57.759 16.8201C57.4821 16.319 57.1062 15.9234 56.6315 15.6334C56.1568 15.3301 55.6228 15.1784 55.0294 15.1784C54.5679 15.1784 54.1394 15.2641 53.7438 15.4356C53.3614 15.607 53.0251 15.8443 52.735 16.1476C52.4581 16.4509 52.2405 16.8069 52.0823 17.2157C51.9241 17.6245 51.845 18.0596 51.845 18.5211C51.845 19.1409 51.9834 19.7079 52.2603 20.2221C52.5372 20.7232 52.913 21.1254 53.3877 21.4287C53.8756 21.7188 54.4229 21.8638 55.0294 21.8638ZM55.0096 13.1412C55.814 13.1412 56.5458 13.2796 57.2051 13.5565C57.8776 13.8334 58.4512 14.2224 58.9259 14.7235C59.4138 15.2114 59.783 15.785 60.0336 16.4443C60.2973 17.0904 60.4292 17.7827 60.4292 18.5211C60.4292 19.2596 60.2973 19.9584 60.0336 20.6177C59.783 21.2639 59.4138 21.8375 58.9259 22.3385C58.4512 22.8264 57.8776 23.2088 57.2051 23.4857C56.5458 23.7626 55.814 23.9011 55.0096 23.9011C54.2053 23.9011 53.4669 23.7626 52.7944 23.4857C52.1351 23.2088 51.5615 22.8264 51.0736 22.3385C50.5857 21.8375 50.2099 21.2639 49.9462 20.6177C49.6956 19.9584 49.5703 19.2596 49.5703 18.5211C49.5703 17.7827 49.6956 17.0904 49.9462 16.4443C50.2099 15.785 50.5857 15.2114 51.0736 14.7235C51.5615 14.2224 52.1351 13.8334 52.7944 13.5565C53.4669 13.2796 54.2053 13.1412 55.0096 13.1412Z" fill="#4747A3"/>
<path d="M67.0878 13.1412C67.9977 13.1412 68.8086 13.3258 69.5207 13.695C70.1919 14.0245 70.7503 14.467 71.1956 15.0225C71.2552 15.0968 71.2396 15.2051 71.1637 15.2626L69.7282 16.3517C69.6481 16.4125 69.5336 16.3922 69.4727 16.3122C69.2346 15.9988 68.9275 15.7395 68.5515 15.5345C68.1295 15.2971 67.635 15.1784 67.068 15.1784C66.6065 15.1784 66.178 15.2641 65.7824 15.4356C65.4 15.607 65.0703 15.8443 64.7934 16.1476C64.5165 16.4509 64.2989 16.8069 64.1407 17.2157C63.9825 17.6113 63.9034 18.0464 63.9034 18.5211C63.9034 19.1541 64.0418 19.7277 64.3187 20.2419C64.5956 20.743 64.9714 21.1386 65.4461 21.4287C65.9208 21.7188 66.4747 21.8638 67.1076 21.8638C67.6482 21.8638 68.1295 21.7451 68.5515 21.5078C68.9275 21.3027 69.2346 21.0435 69.4727 20.7301C69.5336 20.65 69.6481 20.6298 69.7282 20.6906L71.1623 21.7785C71.2388 21.8365 71.2539 21.9458 71.1931 22.0201C70.7482 22.5638 70.1907 23.0062 69.5207 23.3473C68.8086 23.7165 67.9977 23.9011 67.0878 23.9011C65.967 23.9011 64.9978 23.6571 64.1803 23.1693C63.3627 22.6682 62.7298 22.0089 62.2815 21.1913C61.8463 20.3738 61.6287 19.4837 61.6287 18.5211C61.6287 17.7959 61.754 17.1102 62.0046 16.4641C62.2551 15.818 62.6177 15.2444 63.0924 14.7433C63.5671 14.2422 64.1407 13.8532 64.8132 13.5763C65.4857 13.2862 66.2439 13.1412 67.0878 13.1412Z" fill="#4747A3"/>
<path d="M74.5812 16.0487C74.5812 16.3652 74.6932 16.6289 74.9174 16.8399C75.1548 17.0377 75.458 17.2091 75.8272 17.3541C76.1965 17.4992 76.5855 17.6574 76.9942 17.8289C77.4162 17.9871 77.8118 18.1849 78.181 18.4222C78.5502 18.6464 78.8469 18.9497 79.071 19.3321C79.3084 19.7013 79.4271 20.1694 79.4271 20.7364C79.4271 21.4089 79.2622 21.9825 78.9326 22.4572C78.6161 22.9187 78.1942 23.2747 77.6667 23.5253C77.1393 23.7758 76.5591 23.9011 75.9261 23.9011C75.069 23.9011 74.324 23.7429 73.6911 23.4264C73.1079 23.1226 72.5919 22.7237 72.143 22.2297C72.0791 22.1594 72.087 22.0507 72.1583 21.988L73.3765 20.9159C73.4509 20.8505 73.5646 20.8607 73.6293 20.9357C73.916 21.2682 74.2333 21.5446 74.5812 21.7649C74.9767 22.0155 75.4185 22.1407 75.9064 22.1407C76.3679 22.1407 76.7173 22.0221 76.9547 21.7847C77.2052 21.5342 77.3305 21.2309 77.3305 20.8749C77.3305 20.5452 77.2118 20.2815 76.9744 20.0837C76.7503 19.8859 76.4536 19.7145 76.0844 19.5694C75.7152 19.4244 75.3196 19.2727 74.8976 19.1145C74.4888 18.9431 74.0999 18.7387 73.7306 18.5013C73.3614 18.264 73.0582 17.9607 72.8208 17.5915C72.5966 17.2091 72.4846 16.7212 72.4846 16.1278C72.4846 15.574 72.6296 15.0729 72.9197 14.6246C73.2098 14.1631 73.612 13.8005 74.1262 13.5368C74.6537 13.273 75.2536 13.1412 75.9261 13.1412C76.6514 13.1412 77.3239 13.2994 77.9436 13.6159C78.5205 13.9043 78.9823 14.2639 79.3292 14.6947C79.3861 14.7654 79.3737 14.8679 79.3047 14.9268L78.086 15.9668C78.0092 16.0323 77.8931 16.0184 77.8294 15.94C77.6043 15.6628 77.3457 15.4288 77.0536 15.2378C76.7107 15.0136 76.3349 14.9015 75.9261 14.9015C75.636 14.9015 75.3855 14.9543 75.1745 15.0598C74.9767 15.1652 74.8251 15.3037 74.7196 15.4751C74.6273 15.6465 74.5812 15.8377 74.5812 16.0487Z" fill="#4747A3"/>
</svg>
